<svg width="39" height="51" viewBox="0 0 39 51" fill="none" xmlns="http://www.w3.org/2000/svg">
<path d="M15.9424 21.232C15.931 19.8821 17.2121 18.8211 18.8762 18.8071C20.5403 18.7931 21.839 19.8324 21.8504 21.1802C21.8618 22.53 20.5807 23.5931 18.9166 23.6071C17.2525 23.6211 15.9538 22.5798 15.9424 21.232ZM27.2071 0.846292C26.5809 0.868106 25.9633 1.17721 25.4065 1.8269C24.5938 2.78472 23.1319 4.46743 22.1294 5.4682C20.8152 6.76928 19.9598 7.06798 18.7815 7.0779C17.6032 7.08783 16.7575 6.82207 15.4007 5.52488C14.3838 4.5618 12.8729 2.88552 12.0628 1.93931C11.1551 0.933969 10.1098 0.785657 9.12157 1.26947C8.30218 1.6733 7.84184 2.48963 7.79467 3.76144C7.78901 4.74203 7.79589 5.72265 7.81532 6.70307C7.8363 8.21204 7.8565 9.874 7.83385 10.8665C7.79476 12.8515 7.65607 14.0579 6.84994 15.7909C6.1698 17.2644 5.07235 19.7545 4.98656 23.067C4.94548 24.8029 5.01535 26.5397 5.19575 28.2667C5.31428 29.5764 5.41926 30.7497 5.34046 32.1934C5.21101 34.4954 4.37712 35.6333 3.17281 36.4807L3.01247 36.5895C1.51633 37.642 0.683994 38.2279 0.224757 39.4204C-0.104827 40.2977 -0.0943261 41.5442 0.90243 42.0712C1.53991 42.4049 2.30635 42.3406 3.08904 41.997C3.24352 41.9295 3.39791 41.8518 3.55234 41.7781C4.00527 41.5551 4.44997 41.3364 4.89675 41.3636C5.3641 41.3804 5.74058 41.6522 5.80308 42.4455C5.88452 43.2779 6.24293 43.614 6.82174 43.6091C7.28892 43.6051 7.71812 43.2646 8.04739 42.3501L8.21682 41.8484C8.4648 41.1 8.65425 40.5216 9.11523 40.5177C9.71489 40.5333 9.84663 41.202 9.89392 42.1526C9.96126 43.5206 9.48642 44.579 8.53717 45.5193C7.44645 46.5994 6.63227 47.6213 6.94317 48.9438C7.15778 49.8785 8.13452 50.4843 9.6649 50.55C11.2365 50.5967 13.7792 50.5939 15.536 50.5418C17.1832 50.4866 18.1298 49.7241 18.3074 48.7117C18.4202 48.1112 18.3031 47.7152 18.1883 47.3358C18.0862 46.9976 17.9843 46.676 18.0612 46.235C18.1498 45.7174 18.5986 45.4945 19.0844 45.4904C19.5702 45.4863 20.0372 45.7015 20.1159 46.2177C20.1899 46.6471 20.1016 46.9662 20.0052 47.2998C19.8968 47.6873 19.7803 48.0894 19.9136 48.6981C20.1286 49.6886 21.0694 50.4332 22.7153 50.4793C24.4728 50.5058 27.0152 50.4637 28.5649 50.368C30.0981 50.2786 31.0645 49.6544 31.2613 48.7204C31.5499 47.3886 30.7229 46.4012 29.6098 45.3232C28.6511 44.3948 28.1523 43.3508 28.1966 41.9819C28.2258 41.0307 28.3689 40.3535 28.9496 40.3279C29.4146 40.3074 29.6159 40.8908 29.8766 41.6535C29.9317 41.8102 29.9868 41.9751 30.0503 42.1441C30.3928 43.0529 30.8257 43.3903 31.2929 43.3864C31.8717 43.3815 32.2242 43.0168 32.2917 42.2017C32.3593 41.3886 32.7313 41.1292 33.1797 41.1047C33.626 41.072 34.0743 41.2832 34.5309 41.4965C34.6866 41.5696 34.8464 41.6426 35.002 41.7075C35.809 42.0377 36.5536 42.0872 37.1875 41.7449C38.2124 41.1988 38.204 39.9522 37.8597 39.0827C37.3698 37.8733 36.5174 37.3017 34.9228 36.2339L34.8604 36.1931C33.6358 35.3702 32.787 34.2424 32.6188 31.9429C32.5157 30.4987 32.6009 29.3258 32.6973 28.0143C32.8012 26.6035 32.9162 25.0355 32.8189 22.816C32.6796 19.524 31.5422 17.0321 30.8353 15.5702C30.0002 13.8717 29.839 12.643 29.7664 10.659C29.7311 9.27225 29.7153 7.88507 29.719 6.49788C29.7148 5.26372 29.7094 4.13707 29.6861 3.57495C29.6383 2.32462 29.1437 1.5184 28.336 1.10553C27.9869 0.927129 27.5991 0.838058 27.2071 0.846292ZM11.6198 15.6143L11.686 15.6137C12.3785 15.6079 12.9623 16.1963 12.9687 16.9508C12.9748 17.6847 12.4219 18.3054 11.7087 18.3114C11.5366 18.3083 11.3667 18.2711 11.209 18.202C11.0513 18.1328 10.9089 18.0331 10.79 17.9086C10.6711 17.784 10.5781 17.6371 10.5163 17.4764C10.4546 17.3157 10.4253 17.1443 10.4302 16.9722C10.4242 16.2631 10.9442 15.6572 11.6219 15.6143L11.6198 15.6143ZM25.9433 15.4936L26.0115 15.493C26.702 15.4872 27.2837 16.0756 27.2901 16.8302C27.2963 17.564 26.7433 18.1847 26.0343 18.1907C25.8618 18.1882 25.6915 18.1514 25.5333 18.0825C25.3751 18.0136 25.2322 17.9139 25.1129 17.7893C24.9936 17.6648 24.9002 17.5177 24.8381 17.3567C24.7761 17.1957 24.7467 17.024 24.7516 16.8515C24.7456 16.1425 25.2635 15.5365 25.9433 15.4936ZM18.8498 18.1293C21.841 18.1041 23.999 18.8012 26.0715 20.6484C27.5025 21.9264 28.4605 24.4777 27.3541 26.391C26.8207 27.3671 25.7792 28.1532 24.5274 28.2816C22.8647 28.4548 21.832 27.8288 21.1702 27.0612C20.5293 26.3307 19.8496 25.6438 18.8966 25.6519C17.9457 25.6599 17.2776 26.356 16.6492 27.0972C16.0004 27.8759 14.9577 28.5214 13.3109 28.3761C12.7225 28.3177 12.1564 28.1201 11.6595 27.7997C11.1625 27.4793 10.7489 27.0452 10.4528 26.5334C9.37203 24.6199 10.2683 22.0509 11.6777 20.7697C13.7375 18.8876 15.8586 18.1545 18.8498 18.1293ZM18.9798 31.1068C22.2335 31.0794 24.9301 33.8745 24.9594 37.3453C24.9886 40.8181 22.3581 43.6581 19.0858 43.6856C15.8155 43.7132 13.1354 40.918 13.1062 37.4451C13.0769 33.9723 15.7095 31.1344 18.9798 31.1068Z" fill="url(#paint0_linear_1_3)"/>
<defs>
<linearGradient id="paint0_linear_1_3" x1="18.7181" y1="0.917617" x2="19.136" y2="50.5307" gradientUnits="userSpaceOnUse">
<stop stop-color="#C81111"/>
<stop offset="0.390625" stop-color="#F67E0F" stop-opacity="0.489583"/>
<stop offset="0.661458" stop-color="#CBD931" stop-opacity="0.338542"/>
<stop offset="1" stop-color="#58E217" stop-opacity="0.47"/>
</linearGradient>
</defs>
</svg>
